<svg width="32" height="32" viewBox="0 0 32 32" fill="none" xmlns="http://www.w3.org/2000/svg">
<path fill-rule="evenodd" clip-rule="evenodd" d="M0 16C0 24.8366 7.16344 32 16 32V0C7.16344 0 0 7.16344 0 16Z" fill="#10B981"/>
<path d="M16 32C24.8366 32 32 24.8366 32 16C32 7.16344 24.8366 0 16 0V32Z" fill="#6366F1"/>
<g clip-path="url(#clip0_165_2470)">
<path d="M8.7 14.7L8.5 15C6.2 18.6 6.7 23.3 9.8 26.3C11.5 28.1 13.9 29 16.3 29C16.3 29 16.3 29 8.7 14.7Z" fill="white"/>
<path opacity="0.6" d="M16.3 19L8.7 14.6C16.3 29 16.3 29 16.3 29C16.3 25.9 16.3 22.3 16.3 19Z" fill="white"/>
<path opacity="0.6" d="M23.9 14.7L24.1 15C26.4 18.6 25.9 23.3 22.8 26.3C21 28.1 18.7 29 16.3 29C16.3 29 16.3 29 23.9 14.7Z" fill="white"/>
<path opacity="0.2" d="M16.3 19L23.9 14.6C16.3 29 16.3 29 16.3 29C16.3 25.9 16.3 22.3 16.3 19Z" fill="white"/>
<path opacity="0.2" d="M16.3 9.3V16.8L22.9 13.1L16.3 9.3Z" fill="white"/>
<path opacity="0.6" d="M16.3 9.3L9.7 13.1L16.3 16.8V9.3Z" fill="white"/>
<path d="M16.3 3L9.7 13.1L16.3 9.3V3Z" fill="white"/>
<path opacity="0.6" d="M16.3 9.3L22.9 13.1L16.3 3V9.3Z" fill="white"/>
</g>
<defs>
<clipPath id="clip0_165_2470">
<rect width="18.6" height="26" fill="white" transform="translate(7 3)"/>
</clipPath>
</defs>
</svg>
